P3
10 10
255
1 1 1
1 1 1
1 1 1
1 1 1
32 0 0
32 0 0
1 1 1
1 1 1
1 1 1
1 1 1
1 1 1
1 1 1
1 1 1
1 1 1
32 0 0
32 0 0
1 1 1
1 1 1
1 1 1
1 1 1
25 25 102
25 25 102
1 1 1
1 1 1
32 0 0
32 0 0
1 1 1
1 1 1
1 1 1
1 1 1
25 25 102
25 25 102
25 25 102
25 25 102
32 0 0
32 0 0
1 1 1
102 25 25
102 25 25
1 1 1
25 25 102
25 25 102
25 25 102
25 25 102
32 0 0
32 0 0
1 1 1
1 1 1
1 1 1
1 1 1
25 25 102
25 25 102
25 25 102
25 25 102
25 25 102
32 0 0
25 25 102
1 1 1
1 1 1
1 1 1
25 25 102
25 25 102
25 25 102
25 25 102
25 25 102
25 25 102
25 25 102
25 25 102
25 25 102
1 1 1
25 25 102
25 25 102
25 25 102
25 25 102
25 25 102
25 25 102
25 25 102
25 25 102
25 25 102
25 25 102
25 25 102
25 25 102
25 25 102
25 25 102
25 25 102
25 25 102
25 25 102
25 25 102
25 25 102
25 25 102
25 25 102
25 25 102
25 25 102
25 25 102
25 25 102
25 25 102
25 25 102
25 25 102
25 25 102
25 25 102
